<?xml version="1.0" encoding="iso-8859-1"?>
<!-- Uploaded to: SVG Repo, www.svgrepo.com, Generator: SVG Repo Mixer Tools -->
<svg fill="#000000" height="800px" width="800px" version="1.1" id="Layer_1" xmlns="http://www.w3.org/2000/svg" xmlns:xlink="http://www.w3.org/1999/xlink" 
	 viewBox="0 0 512 512" xml:space="preserve">
<g>
	<g>
		<path d="M406.235,0H105.059c-5.549,0-9.686,4.838-9.686,10.382v491.922c0,5.544,4.137,9.696,9.686,9.696h301.176
			c5.549,0,10.392-4.152,10.392-9.696V10.382C416.627,4.838,411.784,0,406.235,0z M396.549,491.922H115.451V20.078h281.098V491.922z
			"/>
	</g>
</g>
<g>
	<g>
		<polygon points="266.039,150.588 266.039,100.392 245.961,100.392 245.961,150.588 195.765,150.588 195.765,170.667 
			245.961,170.667 245.961,271.059 266.039,271.059 266.039,170.667 316.235,170.667 316.235,150.588 		"/>
	</g>
</g>
</svg>